mastitorrents.com 
http://mastitorrents.com/forums/index.php


Ripper Note :- Enjoy this Superb movie in good Quality
General
Complete name                    : BLADES OF GLORY HDrip Hindi Dubbed.MP4
Format                           : Matroska
File size                        : 309 MiB
Duration                         : 1h 29mn
Overall bit rate                 : 484 Kbps


Video
ID                               : 1
Format                           : AVC
Format/Info                      : Advanced Video Codec
Format profile                   : High@L5.1
Format settings, CABAC           : Yes
Format settings, ReFrames        : 8 frames
Muxing mode                      : Container profile=Unknown@5.1
Codec ID                         : V_MPEG4/ISO/AVC
Duration                         : 1h 29mn
Bit rate                         : 410 Kbps
Nominal bit rate                 : 404 Kbps
Width                            : 640 pixels
Height                           : 352 pixels
Display aspect ratio             : 16:9
Frame rate                       : 25.000 fps
Resolution                       : 8 bits
Colorimetry                      : 4:2:0
Scan type                        : Progressive
Bits/(Pixel*Frame)               : 0.073
Stream size                      : 262 MiB (85%)
Title                            : HD-VIDEO BY ARIHANT

Language                         : English

Audio
ID                               : 2
Format                           : MPEG Audio
Format version                   : Version 1
Format profile                   : Layer 3
Mode                             : Joint stereo
Format_Settings_ModeExtension    : MS Stereo
Codec ID                         : A_MPEG/L3
Codec ID/Hint                    : MP3
Duration                         : 1h 29mn
Bit rate mode                    : Constant
Bit rate                         : 64.0 Kbps
Channel(s)                       : 2 channels
Sampling rate                    : 48.0 KHz
Video delay                      : 1s 200ms
Stream size                      : 40.9 MiB (13%)
Title                            : HINDI AUDIO 
Language                         : Hindi